<svg width="269" height="201" fill="none" xmlns="http://www.w3.org/2000/svg"><circle cx="136.427" cy="100.314" r="100.314" fill="#68B738"/><path d="M247.01 55.688a30.498 30.498 0 0 1 9.028-9.229c2.006-1.404 3.21-1.404 4.414 1.204 1.605 3.812 3.009 7.824 1.806 12.038a4.593 4.593 0 0 0 .802 4.213c1.204 1.605 2.207 3.21 3.21 4.614a12.583 12.583 0 0 1 1.806 12.44 10.888 10.888 0 0 0-.401 6.219 15.207 15.207 0 0 1 0 6.019 7.524 7.524 0 0 1-5.417 6.42 10.448 10.448 0 0 0-6.42 4.012 2.11 2.11 0 0 1-1.806 1.003c-2.408.402-8.427-5.015-8.427-7.423v-1.204c.201-7.222-.2-7.824-6.821-10.834a8.804 8.804 0 0 1-3.611-2.407c-1.204-1.605-2.809-1.404-4.615-.803-1.805.602-2.808 1.806-2.608 3.812.605 4.857.807 9.756.602 14.646.013.558.15 1.106.401 1.605 6.22 9.028 8.627 19.662 11.637 29.894 2.407 7.824 6.821 12.037 14.846 12.639a25.18 25.18 0 0 1 3.812.602 8.35 8.35 0 0 1 6.822 6.42c1.404 4.214.601 5.217-3.612 5.217h-13.041a6.505 6.505 0 0 1-4.614-1.605 23.491 23.491 0 0 0-6.821-4.013 14.564 14.564 0 0 1-6.822-5.216 57.386 57.386 0 0 0-8.025-9.029c-5.617-5.818-11.636-11.435-16.853-17.454a22.833 22.833 0 0 1-6.42-15.248c0-1.806-.401-2.608-2.407-1.806a3.861 3.861 0 0 1-2.007.602c-5.617 0-8.426 3.411-10.432 8.427-1.806 4.213-4.213 8.225-6.42 12.439a20.845 20.845 0 0 0-2.007 8.426c0 4.815 1.204 6.42 5.618 8.025 2.809 1.003 5.417 2.006 6.821 4.815 1.605 3.21 1.204 4.013-2.207 4.213h-13.642a3.771 3.771 0 0 1-3.812-2.206l-3.612-6.019a12.136 12.136 0 0 1-1.404-10.834c.868-3.484.937-7.119.201-10.634a16.9 16.9 0 0 1 3.41-14.044c1.204-1.404 1.204-2.006-.802-2.407a100.448 100.448 0 0 1-23.674-8.226.2.2 0 0 1-.201-.2c-6.42-2.408-7.624-2.007-9.429 4.614-1.605 5.618-3.21 11.235-4.414 17.053-1.405 6.421.2 12.439 2.207 18.458.802 2.408 3.21 2.207 5.015 2.809 4.013 1.204 7.424 2.809 9.029 7.022 1.404 3.21 1.203 3.611-2.207 3.611-3.411 0-6.822-.2-10.433 0a13.314 13.314 0 0 1-8.426-2.809c-9.63-6.42-12.439-16.25-13.242-26.884-.401-6.62-4.012-11.837-8.226-16.852-.802-1.004-1.605-1.405-2.808-.602a89.083 89.083 0 0 1-13.442 6.019 53.58 53.58 0 0 0-24.477 17.655 21.325 21.325 0 0 0-4.414 10.232c-.602 3.611.401 5.216 4.013 6.219 3.611 1.003 5.417 3.01 5.818 6.822.2 1.605-.401 2.407-2.006 2.407H49.592a3.308 3.308 0 0 1-2.608-1.605 17.173 17.173 0 0 1-3.812-11.034c-.106-6.932.5-13.857 1.805-20.665a12.639 12.639 0 0 1 6.822-9.63c11.837-5.618 18.056-16.251 23.674-27.286 1.204-2.207.2-2.608-1.806-2.407a33.044 33.044 0 0 0-15.448 6.42 141.689 141.689 0 0 0-16.652 14.245 33.446 33.446 0 0 1-20.665 9.83C6.256 109.256-.565 101.03.037 87.789A19.441 19.441 0 0 1 4.852 75.55a8.527 8.527 0 0 1 9.028-3.01c3.01.803 3.812 2.408 2.608 5.418-.602 1.204-1.404 2.207-2.006 3.41a15.047 15.047 0 0 0-2.006 4.013c-2.207 6.019.802 10.232 7.021 10.834 6.621.602 12.038-2.207 17.054-6.22A90.163 90.163 0 0 0 52.6 73.344a41.71 41.71 0 0 1 28.89-16.25c4.615-.602 8.628-2.609 13.041-3.813a83.28 83.28 0 0 1 25.48-3.61 26.084 26.084 0 0 0 11.637-2.208c9.83-4.012 20.062-4.012 30.295-2.006 8.025 1.605 16.05 3.611 23.874 5.618 4.657.867 9.445.73 14.044-.402a136.008 136.008 0 0 1 26.884-4.012A36.43 36.43 0 0 1 244 50.07c4.013 1.806 4.013 1.806 3.01 5.618Z" fill="#000"/></svg>