<svg width="269" height="201" viewBox="0 0 269 201" fill="none" xmlns="http://www.w3.org/2000/svg">
<circle cx="136.427" cy="100.314" r="100.314" fill="#68B738"/>
<path d="M247.01 55.6881C249.326 52.0027 252.405 48.8559 256.038 46.4592C258.044 45.0548 259.248 45.0548 260.452 47.6629C262.057 51.4749 263.461 55.4874 262.258 59.7006C262.039 60.4152 261.997 61.1724 262.137 61.9066C262.277 62.6408 262.594 63.3298 263.06 63.9138C264.264 65.5188 265.267 67.1239 266.27 68.5283C267.635 70.2612 268.521 72.3228 268.838 74.506C269.155 76.6893 268.892 78.9176 268.076 80.9672C267.339 82.9571 267.2 85.1187 267.675 87.1867C268.076 89.1729 268.076 91.2193 267.675 93.2055C267.512 94.693 266.91 96.0984 265.946 97.242C264.981 98.3856 263.697 99.2155 262.258 99.6256C259.691 100.114 257.401 101.545 255.838 103.638C255.648 103.946 255.382 104.201 255.066 104.376C254.75 104.552 254.394 104.643 254.032 104.641C251.624 105.043 245.605 99.6256 245.605 97.2181V96.0143C245.806 88.7917 245.405 88.1898 238.784 85.1804C237.398 84.6917 236.157 83.8641 235.173 82.7729C233.969 81.1678 232.364 81.3685 230.558 81.9704C228.753 82.5722 227.75 83.776 227.95 85.7823C228.555 90.6392 228.757 95.538 228.552 100.428C228.565 100.986 228.702 101.534 228.953 102.033C235.173 111.061 237.58 121.695 240.59 131.927C242.997 139.751 247.411 143.964 255.436 144.566C256.72 144.669 257.995 144.87 259.248 145.168C260.897 145.433 262.428 146.187 263.644 147.331C264.861 148.476 265.705 149.959 266.07 151.588C267.474 155.802 266.671 156.805 262.458 156.805H249.417C247.729 156.89 246.074 156.314 244.803 155.2C242.772 153.486 240.466 152.129 237.982 151.187C235.235 150.173 232.858 148.356 231.16 145.971C228.81 142.687 226.12 139.661 223.135 136.942C217.518 131.124 211.499 125.507 206.282 119.488C202.311 115.387 200.021 109.947 199.862 104.24C199.862 102.434 199.461 101.632 197.455 102.434C196.854 102.816 196.16 103.024 195.448 103.036C189.831 103.036 187.022 106.447 185.016 111.463C183.21 115.676 180.803 119.688 178.596 123.902C177.344 126.539 176.661 129.41 176.589 132.328C176.589 137.143 177.793 138.748 182.207 140.353C185.016 141.356 187.624 142.359 189.028 145.168C190.633 148.378 190.232 149.181 186.821 149.381H173.179C172.392 149.459 171.601 149.288 170.917 148.892C170.233 148.496 169.691 147.895 169.367 147.175L165.755 141.156C164.691 139.585 164.009 137.787 163.766 135.906C163.522 134.024 163.722 132.112 164.351 130.322C165.219 126.838 165.288 123.203 164.552 119.688C164.046 117.241 164.09 114.712 164.679 112.283C165.269 109.855 166.39 107.587 167.962 105.644C169.166 104.24 169.166 103.638 167.16 103.237C158.956 101.494 151.003 98.7308 143.486 95.0112C143.433 95.0112 143.381 94.99 143.344 94.9524C143.306 94.9148 143.285 94.8638 143.285 94.8106C136.865 92.403 135.661 92.8043 133.856 99.425C132.251 105.043 130.646 110.66 129.442 116.478C128.037 122.899 129.642 128.917 131.649 134.936C132.451 137.344 134.859 137.143 136.664 137.745C140.677 138.949 144.088 140.554 145.693 144.767C147.097 147.977 146.896 148.378 143.486 148.378C140.075 148.378 136.664 148.178 133.053 148.378C130.006 148.434 127.031 147.442 124.627 145.569C114.997 139.149 112.188 129.319 111.385 118.685C110.984 112.065 107.373 106.848 103.159 101.833C102.357 100.829 101.554 100.428 100.351 101.231C96.0441 103.605 91.548 105.618 86.9086 107.25C77.2268 110.668 68.7309 116.796 62.4319 124.905C60.0799 127.864 58.5566 131.395 58.0181 135.137C57.4162 138.748 58.4194 140.353 62.0307 141.356C65.642 142.359 67.4476 144.366 67.8489 148.178C68.0495 149.783 67.4476 150.585 65.8426 150.585H49.5917C49.0599 150.547 48.545 150.382 48.0909 150.102C47.6368 149.823 47.2569 149.438 46.9836 148.98C44.4634 145.86 43.1148 141.956 43.1716 137.946C43.0663 131.014 43.6714 124.089 44.9773 117.281C45.2451 115.242 46.0063 113.299 47.195 111.621C48.3838 109.943 49.964 108.58 51.7986 107.651C63.6357 102.033 69.8552 91.3999 75.4728 80.3653C76.6765 78.1584 75.6734 77.7572 73.6671 77.9578C68.0522 78.7373 62.7323 80.9482 58.2187 84.3779C52.3086 88.6891 46.7413 93.4515 41.5666 98.6225C36.0486 104.227 28.7318 107.708 20.9019 108.453C6.25605 109.256 -0.56531 101.03 0.0365744 87.7886C0.171121 83.2736 1.87362 78.9464 4.85165 75.5502C5.88694 74.208 7.29878 73.2049 8.90688 72.6688C10.515 72.1328 12.2464 72.0882 13.8799 72.5408C16.8893 73.3433 17.6919 74.9484 16.4881 77.9578C15.8862 79.1616 15.0837 80.1647 14.4818 81.3685C13.6163 82.5982 12.94 83.9508 12.4755 85.381C10.2686 91.3999 13.278 95.6131 19.4975 96.215C26.1182 96.8168 31.5352 94.008 36.5509 89.9955C42.5937 85.1568 47.9881 79.5601 52.6012 73.3433C56.0505 68.8039 60.3937 65.0199 65.3628 62.2248C70.3318 59.4297 75.8211 57.683 81.4916 57.0925C86.1061 56.4906 90.1186 54.4843 94.5324 53.2805C102.787 50.7639 111.383 49.5455 120.012 49.6692C124.009 49.8357 127.99 49.0806 131.649 47.4623C141.479 43.4497 151.711 43.4497 161.944 45.456C169.969 47.061 177.994 49.0673 185.818 51.0736C190.475 51.9413 195.263 51.8045 199.862 50.6724C208.667 48.4404 217.674 47.0962 226.746 46.6598C232.69 46.3706 238.614 47.5416 244 50.0705C248.013 51.8761 248.013 51.8761 247.01 55.6881Z" fill="black"/>
</svg>
