<svg width="165" height="38" viewBox="0 0 165 38" fill="none" xmlns="http://www.w3.org/2000/svg">
<path d="M1.34398 28V11.8H3.60398V19H4.44398L7.34398 11.8H9.60398L6.40398 19.5L10.004 28H7.74398L4.46398 20.1H3.60398V28H1.34398ZM10.6202 28L14.0602 11.8H16.2402L19.7002 28H17.5602L16.8202 23.92H13.5202L12.7402 28H10.6202ZM13.8202 22.3H16.5202L15.1602 15L13.8202 22.3ZM22.5966 28V13.48H19.8566V11.8H27.5166V13.48H24.8566V28H22.5966ZM28.1984 28L31.6384 11.8H33.8184L37.2784 28H35.1384L34.3984 23.92H31.0984L30.3184 28H28.1984ZM31.3984 22.3H34.0984L32.7384 15L31.3984 22.3ZM37.7021 28V26.32C37.9954 26.3333 38.2621 26.3133 38.5021 26.26C38.7554 26.2067 38.9754 26.08 39.1621 25.88C39.3621 25.68 39.5354 25.3667 39.6821 24.94C39.8288 24.5133 39.9554 23.9333 40.0621 23.2C40.1688 22.4667 40.2621 21.54 40.3421 20.42L40.8821 11.8H48.0021V28H45.7421V13.48H42.8221L42.4421 20.42C42.3754 21.46 42.2888 22.4 42.1821 23.24C42.0754 24.0667 41.9154 24.7933 41.7021 25.42C41.5021 26.0333 41.2288 26.5467 40.8821 26.96C40.5488 27.36 40.1221 27.6467 39.6021 27.82C39.0821 27.9933 38.4488 28.0533 37.7021 28ZM54.6832 28.18C53.5899 28.18 52.7165 27.9667 52.0632 27.54C51.4099 27.1133 50.9432 26.5067 50.6632 25.72C50.3832 24.92 50.2432 23.9867 50.2432 22.92V16.78C50.2432 15.7133 50.3832 14.8 50.6632 14.04C50.9565 13.2667 51.4232 12.68 52.0632 12.28C52.7165 11.8667 53.5899 11.66 54.6832 11.66C55.7765 11.66 56.6432 11.8667 57.2832 12.28C57.9232 12.6933 58.3832 13.28 58.6632 14.04C58.9565 14.8 59.1032 15.7133 59.1032 16.78V22.94C59.1032 23.9933 58.9565 24.9133 58.6632 25.7C58.3832 26.4867 57.9232 27.1 57.2832 27.54C56.6432 27.9667 55.7765 28.18 54.6832 28.18ZM54.6832 26.4C55.2832 26.4 55.7365 26.28 56.0432 26.04C56.3499 25.7867 56.5565 25.44 56.6632 25C56.7699 24.5467 56.8232 24.02 56.8232 23.42V16.32C56.8232 15.72 56.7699 15.2067 56.6632 14.78C56.5565 14.34 56.3499 14.0067 56.0432 13.78C55.7365 13.54 55.2832 13.42 54.6832 13.42C54.0832 13.42 53.6232 13.54 53.3032 13.78C52.9965 14.0067 52.7899 14.34 52.6832 14.78C52.5765 15.2067 52.5232 15.72 52.5232 16.32V23.42C52.5232 24.02 52.5765 24.5467 52.6832 25C52.7899 25.44 52.9965 25.7867 53.3032 26.04C53.6232 26.28 54.0832 26.4 54.6832 26.4ZM61.3245 28V11.8H67.4845V13.48H63.5845V28H61.3245ZM77.4296 28.18C76.4963 28.18 75.7163 27.98 75.0896 27.58C74.4763 27.18 74.0096 26.6267 73.6896 25.92C73.3696 25.2133 73.1829 24.3933 73.1296 23.46L75.1296 22.92C75.1696 23.4933 75.2563 24.0467 75.3896 24.58C75.5363 25.1133 75.7696 25.5533 76.0896 25.9C76.4096 26.2333 76.8563 26.4 77.4296 26.4C78.0163 26.4 78.4563 26.24 78.7496 25.92C79.0563 25.5867 79.2096 25.1133 79.2096 24.5C79.2096 23.7667 79.0429 23.18 78.7096 22.74C78.3763 22.2867 77.9563 21.8333 77.4496 21.38L74.7296 18.98C74.1963 18.5133 73.8029 18.0067 73.5496 17.46C73.2963 16.9 73.1696 16.2133 73.1696 15.4C73.1696 14.2133 73.5096 13.2933 74.1896 12.64C74.8696 11.9867 75.7963 11.66 76.9696 11.66C77.6096 11.66 78.1696 11.7467 78.6496 11.92C79.1429 12.08 79.5496 12.3333 79.8696 12.68C80.2029 13.0267 80.4629 13.4667 80.6496 14C80.8496 14.52 80.9829 15.1333 81.0496 15.84L79.1296 16.36C79.0896 15.8267 79.0096 15.34 78.8896 14.9C78.7696 14.4467 78.5563 14.0867 78.2496 13.82C77.9563 13.54 77.5296 13.4 76.9696 13.4C76.4096 13.4 75.9696 13.5533 75.6496 13.86C75.3429 14.1533 75.1896 14.5933 75.1896 15.18C75.1896 15.6733 75.2696 16.08 75.4296 16.4C75.6029 16.72 75.8763 17.0467 76.2496 17.38L78.9896 19.78C79.6029 20.3133 80.1429 20.9533 80.6096 21.7C81.0763 22.4333 81.3096 23.3067 81.3096 24.32C81.3096 25.12 81.1429 25.8133 80.8096 26.4C80.4763 26.9733 80.0163 27.4133 79.4296 27.72C78.8563 28.0267 78.1896 28.18 77.4296 28.18ZM83.0627 28V11.8H85.3227V26.38H89.4627V28H83.0627ZM91.132 28V11.8H93.352V28H91.132ZM95.9329 28L96.2329 11.8H98.4529L101.313 24.94L104.193 11.8H106.393L106.693 28H104.873L104.693 16.24L101.953 28H100.673L97.9529 16.24L97.7729 28H95.9329Z" fill="black"/>
<line x1="133" y1="19" x2="159" y2="19" stroke="black" stroke-width="2"/>
<path d="M165 19L158.25 24.1962V13.8038L165 19Z" fill="black"/>
</svg>
